%TF.GenerationSoftware,KiCad,Pcbnew,9.0.7*%
%TF.CreationDate,2026-03-31T09:01:16+01:00*%
%TF.ProjectId,AMODO_PSRR_INJECTOR_CBs_1,414d4f44-4f5f-4505-9352-525f494e4a45,rev?*%
%TF.SameCoordinates,Original*%
%TF.FileFunction,Copper,L4,Bot*%
%TF.FilePolarity,Positive*%
%FSLAX45Y45*%
G04 Gerber Fmt 4.5, Leading zero omitted, Abs format (unit mm)*
G04 Created by KiCad (PCBNEW 9.0.7) date 2026-03-31 09:01:16*
%MOMM*%
%LPD*%
G01*
G04 APERTURE LIST*
%ADD10C,0.300000*%
%TA.AperFunction,NonConductor*%
%ADD11C,0.300000*%
%TD*%
%TA.AperFunction,ComponentPad*%
%ADD12O,3.500000X3.500000*%
%TD*%
%TA.AperFunction,ComponentPad*%
%ADD13O,3.000000X2.000000*%
%TD*%
%TA.AperFunction,ComponentPad*%
%ADD14C,2.000000*%
%TD*%
%TA.AperFunction,ComponentPad*%
%ADD15C,2.800000*%
%TD*%
%TA.AperFunction,ComponentPad*%
%ADD16R,1.524000X1.524000*%
%TD*%
%TA.AperFunction,ComponentPad*%
%ADD17C,1.524000*%
%TD*%
%TA.AperFunction,ComponentPad*%
%ADD18C,1.200000*%
%TD*%
%TA.AperFunction,ComponentPad*%
%ADD19C,6.400000*%
%TD*%
%TA.AperFunction,ComponentPad*%
%ADD20R,1.778000X1.778000*%
%TD*%
%TA.AperFunction,ComponentPad*%
%ADD21C,1.778000*%
%TD*%
%TA.AperFunction,ViaPad*%
%ADD22C,1.000000*%
%TD*%
G04 APERTURE END LIST*
D10*
D11*
X10169737Y-15280083D02*
X10169737Y-15380083D01*
X10134023Y-15222940D02*
X10098308Y-15330083D01*
X10098308Y-15330083D02*
X10191165Y-15330083D01*
D12*
%TO.P,J5,1,1*%
%TO.N,Net-(J5-Pad1)*%
X17564000Y-13345000D03*
D13*
%TO.P,J5,2,MH*%
%TO.N,unconnected-(J5-MH-Pad2)*%
X18200000Y-13853000D03*
%TO.N,unconnected-(J5-MH-Pad2)_1*%
X18200000Y-12837000D03*
%TO.N,unconnected-(J5-MH-Pad2)_2*%
X17184000Y-13853000D03*
%TO.N,unconnected-(J5-MH-Pad2)_3*%
X17184000Y-12837000D03*
%TD*%
D14*
%TO.P,C5,1*%
%TO.N,Net-(C5-Pad1)*%
X14600000Y-7750000D03*
%TO.P,C5,2*%
%TO.N,/-Vinj*%
X14600000Y-7250000D03*
%TD*%
D15*
%TO.P,J4,1,In*%
%TO.N,Net-(J4-In)*%
X17200000Y-14800000D03*
%TO.P,J4,2,Ext*%
%TO.N,GND*%
X16946000Y-14546000D03*
X16946000Y-15054000D03*
X17454000Y-14546000D03*
X17454000Y-15054000D03*
%TD*%
D12*
%TO.P,J7,1,1*%
%TO.N,Net-(J7-Pad1)*%
X17565000Y-7650000D03*
D13*
%TO.P,J7,2,MH*%
%TO.N,unconnected-(J7-MH-Pad2)*%
X18201000Y-8158000D03*
%TO.N,unconnected-(J7-MH-Pad2)_1*%
X18201000Y-7142000D03*
%TO.N,unconnected-(J7-MH-Pad2)_2*%
X17185000Y-8158000D03*
%TO.N,unconnected-(J7-MH-Pad2)_3*%
X17185000Y-7142000D03*
%TD*%
D16*
%TO.P,TP10,1,1*%
%TO.N,Net-(J2-Pad1)*%
X10100000Y-12700000D03*
D17*
%TO.P,TP10,2,2*%
%TO.N,GND*%
X10100000Y-12446000D03*
X10100000Y-12192000D03*
%TD*%
D18*
%TO.P,H4,1*%
%TO.N,GND*%
X8060000Y-14800000D03*
X8130294Y-14630294D03*
X8130294Y-14969706D03*
X8300000Y-14560000D03*
D19*
X8300000Y-14800000D03*
D18*
X8300000Y-15040000D03*
X8469706Y-14630294D03*
X8469706Y-14969706D03*
X8540000Y-14800000D03*
%TD*%
%TO.P,H3,1*%
%TO.N,GND*%
X18060000Y-14800000D03*
X18130294Y-14630294D03*
X18130294Y-14969706D03*
X18300000Y-14560000D03*
D19*
X18300000Y-14800000D03*
D18*
X18300000Y-15040000D03*
X18469706Y-14630294D03*
X18469706Y-14969706D03*
X18540000Y-14800000D03*
%TD*%
D14*
%TO.P,TP9,1,1*%
%TO.N,Net-(L1-Pad2)*%
X10600000Y-7650000D03*
%TD*%
%TO.P,C7,1*%
%TO.N,Net-(C5-Pad1)*%
X14600000Y-8750000D03*
%TO.P,C7,2*%
%TO.N,/-Vinj*%
X14600000Y-9250000D03*
%TD*%
%TO.P,C6,1*%
%TO.N,Net-(C5-Pad1)*%
X12500000Y-8750000D03*
%TO.P,C6,2*%
%TO.N,/-Vinj*%
X12500000Y-9250000D03*
%TD*%
D12*
%TO.P,J2,1,1*%
%TO.N,Net-(J2-Pad1)*%
X9100000Y-13350000D03*
D13*
%TO.P,J2,2,MH*%
%TO.N,unconnected-(J2-MH-Pad2)*%
X8464000Y-12842000D03*
%TO.N,unconnected-(J2-MH-Pad2)_1*%
X8464000Y-13858000D03*
%TO.N,unconnected-(J2-MH-Pad2)_2*%
X9480000Y-12842000D03*
%TO.N,unconnected-(J2-MH-Pad2)_3*%
X9480000Y-13858000D03*
%TD*%
D14*
%TO.P,C4,1*%
%TO.N,/+Vinj*%
X14600000Y-13750000D03*
%TO.P,C4,2*%
%TO.N,Net-(C1-Pad2)*%
X14600000Y-13250000D03*
%TD*%
D18*
%TO.P,H1,1*%
%TO.N,GND*%
X18060000Y-6200000D03*
X18130294Y-6030294D03*
X18130294Y-6369706D03*
X18300000Y-5960000D03*
D19*
X18300000Y-6200000D03*
D18*
X18300000Y-6440000D03*
X18469706Y-6030294D03*
X18469706Y-6369706D03*
X18540000Y-6200000D03*
%TD*%
D16*
%TO.P,TP5,1,1*%
%TO.N,Net-(J5-Pad1)*%
X16564000Y-12704000D03*
D17*
%TO.P,TP5,2,2*%
%TO.N,GND*%
X16564000Y-12450000D03*
X16564000Y-12196000D03*
%TD*%
D14*
%TO.P,C3,1*%
%TO.N,/+Vinj*%
X12500000Y-13750000D03*
%TO.P,C3,2*%
%TO.N,Net-(C1-Pad2)*%
X12500000Y-13250000D03*
%TD*%
%TO.P,TP4,1,1*%
%TO.N,Net-(J7-Pad1)*%
X16600000Y-7650000D03*
%TD*%
D16*
%TO.P,TP11,1,1*%
%TO.N,Net-(J1-Pad1)*%
X10100000Y-8296000D03*
D17*
%TO.P,TP11,2,2*%
%TO.N,GND*%
X10100000Y-8550000D03*
X10100000Y-8804000D03*
%TD*%
D16*
%TO.P,TP6,1,1*%
%TO.N,Net-(J7-Pad1)*%
X16560000Y-8296000D03*
D17*
%TO.P,TP6,2,2*%
%TO.N,GND*%
X16560000Y-8550000D03*
X16560000Y-8804000D03*
%TD*%
D14*
%TO.P,TP8,1,1*%
%TO.N,GND*%
X10100000Y-10500000D03*
%TD*%
%TO.P,C1,1*%
%TO.N,/+Vinj*%
X12500000Y-11750000D03*
%TO.P,C1,2*%
%TO.N,Net-(C1-Pad2)*%
X12500000Y-12250000D03*
%TD*%
D12*
%TO.P,J9,1,1*%
%TO.N,GND*%
X17564000Y-11450000D03*
D13*
%TO.P,J9,2,MH*%
%TO.N,unconnected-(J9-MH-Pad2)*%
X18200000Y-11958000D03*
%TO.N,unconnected-(J9-MH-Pad2)_1*%
X18200000Y-10942000D03*
%TO.N,unconnected-(J9-MH-Pad2)_2*%
X17184000Y-11958000D03*
%TO.N,unconnected-(J9-MH-Pad2)_3*%
X17184000Y-10942000D03*
%TD*%
D12*
%TO.P,J6,1,1*%
%TO.N,GND*%
X17564000Y-9550000D03*
D13*
%TO.P,J6,2,MH*%
%TO.N,unconnected-(J6-MH-Pad2)*%
X18200000Y-10058000D03*
%TO.N,unconnected-(J6-MH-Pad2)_1*%
X18200000Y-9042000D03*
%TO.N,unconnected-(J6-MH-Pad2)_2*%
X17184000Y-10058000D03*
%TO.N,unconnected-(J6-MH-Pad2)_3*%
X17184000Y-9042000D03*
%TD*%
D18*
%TO.P,H2,1*%
%TO.N,GND*%
X8060000Y-6200000D03*
X8130294Y-6030294D03*
X8130294Y-6369706D03*
X8300000Y-5960000D03*
D19*
X8300000Y-6200000D03*
D18*
X8300000Y-6440000D03*
X8469706Y-6030294D03*
X8469706Y-6369706D03*
X8540000Y-6200000D03*
%TD*%
D15*
%TO.P,J10,1,In*%
%TO.N,Net-(J10-In)*%
X17200000Y-6200000D03*
%TO.P,J10,2,Ext*%
%TO.N,GND*%
X16946000Y-5946000D03*
X16946000Y-6454000D03*
X17454000Y-5946000D03*
X17454000Y-6454000D03*
%TD*%
D14*
%TO.P,TP3,1,1*%
%TO.N,GND*%
X16600000Y-10500000D03*
%TD*%
%TO.P,TP7,1,1*%
%TO.N,Net-(L1-Pad1)*%
X10600000Y-13350000D03*
%TD*%
%TO.P,TP2,1,1*%
%TO.N,Net-(J5-Pad1)*%
X16600000Y-13350000D03*
%TD*%
D12*
%TO.P,J3,1,1*%
%TO.N,GND*%
X9100000Y-9550000D03*
D13*
%TO.P,J3,2,MH*%
%TO.N,unconnected-(J3-MH-Pad2)*%
X8464000Y-9042000D03*
%TO.N,unconnected-(J3-MH-Pad2)_1*%
X8464000Y-10058000D03*
%TO.N,unconnected-(J3-MH-Pad2)_2*%
X9480000Y-9042000D03*
%TO.N,unconnected-(J3-MH-Pad2)_3*%
X9480000Y-10058000D03*
%TD*%
D14*
%TO.P,TP12,1,1*%
%TO.N,/-Vinj*%
X15800000Y-6190000D03*
%TD*%
%TO.P,TP1,1,1*%
%TO.N,/+Vinj*%
X15800000Y-14800000D03*
%TD*%
D12*
%TO.P,J1,1,1*%
%TO.N,Net-(J1-Pad1)*%
X9100000Y-7650000D03*
D13*
%TO.P,J1,2,MH*%
%TO.N,unconnected-(J1-MH-Pad2)*%
X8464000Y-7142000D03*
%TO.N,unconnected-(J1-MH-Pad2)_1*%
X8464000Y-8158000D03*
%TO.N,unconnected-(J1-MH-Pad2)_2*%
X9480000Y-7142000D03*
%TO.N,unconnected-(J1-MH-Pad2)_3*%
X9480000Y-8158000D03*
%TD*%
D14*
%TO.P,C2,1*%
%TO.N,/+Vinj*%
X14600000Y-11750000D03*
%TO.P,C2,2*%
%TO.N,Net-(C1-Pad2)*%
X14600000Y-12250000D03*
%TD*%
%TO.P,C8,1*%
%TO.N,Net-(C5-Pad1)*%
X12500000Y-7750000D03*
%TO.P,C8,2*%
%TO.N,/-Vinj*%
X12500000Y-7250000D03*
%TD*%
D20*
%TO.P,J11,1,1*%
%TO.N,/+Vinj*%
X13900000Y-10604000D03*
D21*
%TO.P,J11,2,2*%
%TO.N,/-Vinj*%
X13900000Y-10350000D03*
%TD*%
D12*
%TO.P,J8,1,1*%
%TO.N,GND*%
X9100000Y-11450000D03*
D13*
%TO.P,J8,2,MH*%
%TO.N,unconnected-(J8-MH-Pad2)*%
X8464000Y-10942000D03*
%TO.N,unconnected-(J8-MH-Pad2)_1*%
X8464000Y-11958000D03*
%TO.N,unconnected-(J8-MH-Pad2)_2*%
X9480000Y-10942000D03*
%TO.N,unconnected-(J8-MH-Pad2)_3*%
X9480000Y-11958000D03*
%TD*%
D22*
%TO.N,GND*%
X11250000Y-15250000D03*
X7750000Y-9250000D03*
X14250000Y-5750000D03*
X10750000Y-5750000D03*
X7750000Y-8750000D03*
X18750000Y-11250000D03*
X11250000Y-5750000D03*
X17750000Y-5750000D03*
X15750000Y-15250000D03*
X18750000Y-10750000D03*
X7750000Y-9750000D03*
X7750000Y-13750000D03*
X11750000Y-5750000D03*
X18750000Y-8250000D03*
X8750000Y-5750000D03*
X13250000Y-15250000D03*
X7750000Y-10250000D03*
X9250000Y-15250000D03*
X12750000Y-15250000D03*
X7750000Y-12250000D03*
X7750000Y-11750000D03*
X15250000Y-5750000D03*
X13250000Y-5750000D03*
X9250000Y-5750000D03*
X16250000Y-5750000D03*
X8750000Y-15250000D03*
X17750000Y-15250000D03*
X18750000Y-13750000D03*
X18750000Y-12250000D03*
X17250000Y-15250000D03*
X18750000Y-10250000D03*
X12750000Y-5750000D03*
X7750000Y-11250000D03*
X12250000Y-5750000D03*
X10750000Y-15250000D03*
X7750000Y-13250000D03*
X18750000Y-13250000D03*
X14750000Y-5750000D03*
X18750000Y-9250000D03*
X18750000Y-12750000D03*
X18750000Y-7750000D03*
X7750000Y-8250000D03*
X17250000Y-5750000D03*
X9750000Y-5750000D03*
X16500000Y-15100000D03*
X18750000Y-11750000D03*
X18750000Y-6750000D03*
X16500000Y-6490000D03*
X16750000Y-5750000D03*
X11750000Y-15250000D03*
X15250000Y-15250000D03*
X18750000Y-7250000D03*
X7750000Y-10750000D03*
X16750000Y-15250000D03*
X12250000Y-15250000D03*
X14750000Y-15250000D03*
X18750000Y-8750000D03*
X7750000Y-7750000D03*
X7750000Y-6750000D03*
X10250000Y-5750000D03*
X13750000Y-15250000D03*
X7750000Y-7250000D03*
X18750000Y-9750000D03*
X16250000Y-15250000D03*
X15750000Y-5750000D03*
X14250000Y-15250000D03*
X18750000Y-14250000D03*
X13750000Y-5750000D03*
X7750000Y-14250000D03*
X7750000Y-12750000D03*
%TO.N,/+Vinj*%
X12750000Y-11250000D03*
X14250000Y-14500000D03*
X12250000Y-11250000D03*
X13500000Y-11250000D03*
X15000000Y-11250000D03*
X12250000Y-14500000D03*
X14000000Y-14500000D03*
X12000000Y-14250000D03*
X13250000Y-11250000D03*
X13750000Y-14250000D03*
X15000000Y-11000000D03*
X13000000Y-14250000D03*
X13000000Y-11000000D03*
X14750000Y-11250000D03*
X14000000Y-11250000D03*
X12500000Y-11000000D03*
X14250000Y-11250000D03*
X13750000Y-11000000D03*
X13250000Y-11000000D03*
X12750000Y-11000000D03*
X13750000Y-14500000D03*
X15000000Y-14250000D03*
X13750000Y-11250000D03*
X14500000Y-11250000D03*
X14750000Y-14250000D03*
X14000000Y-11000000D03*
X14250000Y-14250000D03*
X14500000Y-11000000D03*
X12250000Y-11000000D03*
X14500000Y-14250000D03*
X14250000Y-11000000D03*
X12000000Y-14500000D03*
X12750000Y-14500000D03*
X14000000Y-14250000D03*
X13500000Y-11000000D03*
X13500000Y-14500000D03*
X12500000Y-14250000D03*
X13000000Y-14500000D03*
X15000000Y-14500000D03*
X13000000Y-11250000D03*
X12000000Y-11250000D03*
X12500000Y-11250000D03*
X12500000Y-14500000D03*
X14750000Y-11000000D03*
X12000000Y-11000000D03*
X13250000Y-14250000D03*
X13250000Y-14500000D03*
X12750000Y-14250000D03*
X12250000Y-14250000D03*
X14500000Y-14500000D03*
X13500000Y-14250000D03*
X14750000Y-14500000D03*
%TO.N,/-Vinj*%
X13250000Y-10000000D03*
X15000000Y-6750000D03*
X14000000Y-6500000D03*
X12000000Y-6500000D03*
X13000000Y-9750000D03*
X12500000Y-10000000D03*
X14000000Y-9750000D03*
X12250000Y-6500000D03*
X12750000Y-6500000D03*
X13500000Y-9750000D03*
X12250000Y-6750000D03*
X12000000Y-10000000D03*
X13750000Y-9750000D03*
X12000000Y-9750000D03*
X14750000Y-10000000D03*
X15000000Y-6500000D03*
X12000000Y-6750000D03*
X13750000Y-6500000D03*
X12250000Y-9750000D03*
X15000000Y-9750000D03*
X12250000Y-10000000D03*
X15000000Y-10000000D03*
X14000000Y-10000000D03*
X14500000Y-9750000D03*
X14500000Y-10000000D03*
X14750000Y-6750000D03*
X14500000Y-6750000D03*
X13250000Y-9750000D03*
X12500000Y-6500000D03*
X13750000Y-6750000D03*
X14250000Y-10000000D03*
X13250000Y-6500000D03*
X14250000Y-6750000D03*
X13750000Y-10000000D03*
X12750000Y-6750000D03*
X13500000Y-10000000D03*
X13000000Y-6750000D03*
X13000000Y-10000000D03*
X13250000Y-6750000D03*
X14000000Y-6750000D03*
X13000000Y-6500000D03*
X12500000Y-6750000D03*
X14250000Y-9750000D03*
X14750000Y-6500000D03*
X14750000Y-9750000D03*
X13500000Y-6500000D03*
X12500000Y-9750000D03*
X13500000Y-6750000D03*
X12750000Y-10000000D03*
X14500000Y-6500000D03*
X12750000Y-9750000D03*
X14250000Y-6500000D03*
%TD*%
%TA.AperFunction,Conductor*%
%TO.N,/+Vinj*%
G36*
X15501568Y-10601969D02*
G01*
X15503632Y-10603632D01*
X15596368Y-10696368D01*
X15599717Y-10702500D01*
X15600000Y-10705136D01*
X15600000Y-14694864D01*
X15598031Y-14701568D01*
X15596368Y-14703632D01*
X15503632Y-14796368D01*
X15497500Y-14799717D01*
X15494864Y-14800000D01*
X11605136Y-14800000D01*
X11598432Y-14798031D01*
X11596368Y-14796368D01*
X11503632Y-14703632D01*
X11500283Y-14697500D01*
X11500000Y-14694864D01*
X11500000Y-13238190D01*
X12349950Y-13238190D01*
X12349950Y-13261810D01*
X12353645Y-13285137D01*
X12360943Y-13307600D01*
X12371666Y-13328643D01*
X12385548Y-13347751D01*
X12402249Y-13364452D01*
X12421357Y-13378334D01*
X12431299Y-13383400D01*
X12442400Y-13389057D01*
X12442400Y-13389057D01*
X12442401Y-13389057D01*
X12454441Y-13392969D01*
X12464863Y-13396355D01*
X12488190Y-13400050D01*
X12488191Y-13400050D01*
X12511810Y-13400050D01*
X12535137Y-13396355D01*
X12557599Y-13389057D01*
X12578643Y-13378334D01*
X12597751Y-13364452D01*
X12614452Y-13347751D01*
X12628334Y-13328643D01*
X12639057Y-13307599D01*
X12646355Y-13285137D01*
X12650050Y-13261810D01*
X12650050Y-13238190D01*
X14449950Y-13238190D01*
X14449950Y-13261810D01*
X14453645Y-13285137D01*
X14460943Y-13307600D01*
X14471666Y-13328643D01*
X14485548Y-13347751D01*
X14502249Y-13364452D01*
X14521357Y-13378334D01*
X14531299Y-13383400D01*
X14542400Y-13389057D01*
X14542400Y-13389057D01*
X14542401Y-13389057D01*
X14554441Y-13392969D01*
X14564863Y-13396355D01*
X14588190Y-13400050D01*
X14588191Y-13400050D01*
X14611810Y-13400050D01*
X14635137Y-13396355D01*
X14657599Y-13389057D01*
X14678643Y-13378334D01*
X14697751Y-13364452D01*
X14714452Y-13347751D01*
X14728334Y-13328643D01*
X14739057Y-13307599D01*
X14746355Y-13285137D01*
X14750050Y-13261810D01*
X14750050Y-13238190D01*
X14746355Y-13214863D01*
X14739057Y-13192400D01*
X14728334Y-13171357D01*
X14714452Y-13152249D01*
X14697751Y-13135548D01*
X14678643Y-13121666D01*
X14657600Y-13110943D01*
X14635137Y-13103645D01*
X14611810Y-13099950D01*
X14611809Y-13099950D01*
X14588191Y-13099950D01*
X14588190Y-13099950D01*
X14564863Y-13103645D01*
X14542400Y-13110943D01*
X14521357Y-13121666D01*
X14510455Y-13129586D01*
X14502249Y-13135548D01*
X14502249Y-13135548D01*
X14502249Y-13135548D01*
X14485548Y-13152249D01*
X14485548Y-13152249D01*
X14485548Y-13152249D01*
X14479586Y-13160455D01*
X14471666Y-13171357D01*
X14460943Y-13192400D01*
X14453645Y-13214863D01*
X14449950Y-13238190D01*
X12650050Y-13238190D01*
X12646355Y-13214863D01*
X12639057Y-13192400D01*
X12628334Y-13171357D01*
X12614452Y-13152249D01*
X12597751Y-13135548D01*
X12578643Y-13121666D01*
X12557600Y-13110943D01*
X12535137Y-13103645D01*
X12511810Y-13099950D01*
X12511809Y-13099950D01*
X12488191Y-13099950D01*
X12488190Y-13099950D01*
X12464863Y-13103645D01*
X12442400Y-13110943D01*
X12421357Y-13121666D01*
X12410455Y-13129586D01*
X12402249Y-13135548D01*
X12402249Y-13135548D01*
X12402249Y-13135548D01*
X12385548Y-13152249D01*
X12385548Y-13152249D01*
X12385548Y-13152249D01*
X12379586Y-13160455D01*
X12371666Y-13171357D01*
X12360943Y-13192400D01*
X12353645Y-13214863D01*
X12349950Y-13238190D01*
X11500000Y-13238190D01*
X11500000Y-12238190D01*
X12349950Y-12238190D01*
X12349950Y-12261810D01*
X12353645Y-12285137D01*
X12360943Y-12307600D01*
X12371666Y-12328643D01*
X12385548Y-12347751D01*
X12402249Y-12364452D01*
X12421357Y-12378334D01*
X12431299Y-12383400D01*
X12442400Y-12389057D01*
X12442400Y-12389057D01*
X12442401Y-12389057D01*
X12454441Y-12392969D01*
X12464863Y-12396355D01*
X12488190Y-12400050D01*
X12488191Y-12400050D01*
X12511810Y-12400050D01*
X12535137Y-12396355D01*
X12557599Y-12389057D01*
X12578643Y-12378334D01*
X12597751Y-12364452D01*
X12614452Y-12347751D01*
X12628334Y-12328643D01*
X12639057Y-12307599D01*
X12646355Y-12285137D01*
X12650050Y-12261810D01*
X12650050Y-12238190D01*
X14449950Y-12238190D01*
X14449950Y-12261810D01*
X14453645Y-12285137D01*
X14460943Y-12307600D01*
X14471666Y-12328643D01*
X14485548Y-12347751D01*
X14502249Y-12364452D01*
X14521357Y-12378334D01*
X14531299Y-12383400D01*
X14542400Y-12389057D01*
X14542400Y-12389057D01*
X14542401Y-12389057D01*
X14554441Y-12392969D01*
X14564863Y-12396355D01*
X14588190Y-12400050D01*
X14588191Y-12400050D01*
X14611810Y-12400050D01*
X14635137Y-12396355D01*
X14657599Y-12389057D01*
X14678643Y-12378334D01*
X14697751Y-12364452D01*
X14714452Y-12347751D01*
X14728334Y-12328643D01*
X14739057Y-12307599D01*
X14746355Y-12285137D01*
X14750050Y-12261810D01*
X14750050Y-12238190D01*
X14746355Y-12214863D01*
X14739057Y-12192400D01*
X14728334Y-12171357D01*
X14714452Y-12152249D01*
X14697751Y-12135548D01*
X14678643Y-12121666D01*
X14657600Y-12110943D01*
X14635137Y-12103645D01*
X14611810Y-12099950D01*
X14611809Y-12099950D01*
X14588191Y-12099950D01*
X14588190Y-12099950D01*
X14564863Y-12103645D01*
X14542400Y-12110943D01*
X14521357Y-12121666D01*
X14510455Y-12129586D01*
X14502249Y-12135548D01*
X14502249Y-12135548D01*
X14502249Y-12135548D01*
X14485548Y-12152249D01*
X14485548Y-12152249D01*
X14485548Y-12152249D01*
X14479586Y-12160455D01*
X14471666Y-12171357D01*
X14460943Y-12192400D01*
X14453645Y-12214863D01*
X14449950Y-12238190D01*
X12650050Y-12238190D01*
X12646355Y-12214863D01*
X12639057Y-12192400D01*
X12628334Y-12171357D01*
X12614452Y-12152249D01*
X12597751Y-12135548D01*
X12578643Y-12121666D01*
X12557600Y-12110943D01*
X12535137Y-12103645D01*
X12511810Y-12099950D01*
X12511809Y-12099950D01*
X12488191Y-12099950D01*
X12488190Y-12099950D01*
X12464863Y-12103645D01*
X12442400Y-12110943D01*
X12421357Y-12121666D01*
X12410455Y-12129586D01*
X12402249Y-12135548D01*
X12402249Y-12135548D01*
X12402249Y-12135548D01*
X12385548Y-12152249D01*
X12385548Y-12152249D01*
X12385548Y-12152249D01*
X12379586Y-12160455D01*
X12371666Y-12171357D01*
X12360943Y-12192400D01*
X12353645Y-12214863D01*
X12349950Y-12238190D01*
X11500000Y-12238190D01*
X11500000Y-10705136D01*
X11501968Y-10698432D01*
X11503632Y-10696368D01*
X11596368Y-10603632D01*
X11602500Y-10600283D01*
X11605136Y-10600000D01*
X15494864Y-10600000D01*
X15501568Y-10601969D01*
G37*
%TD.AperFunction*%
%TD*%
%TA.AperFunction,Conductor*%
%TO.N,/-Vinj*%
G36*
X15501568Y-6201968D02*
G01*
X15503632Y-6203632D01*
X15596368Y-6296368D01*
X15599717Y-6302500D01*
X15600000Y-6305136D01*
X15600000Y-10294864D01*
X15598031Y-10301568D01*
X15596368Y-10303632D01*
X15503632Y-10396368D01*
X15497500Y-10399717D01*
X15494864Y-10400000D01*
X11605136Y-10400000D01*
X11598432Y-10398032D01*
X11596368Y-10396368D01*
X11503632Y-10303632D01*
X11500283Y-10297500D01*
X11500000Y-10294864D01*
X11500000Y-8738190D01*
X12349950Y-8738190D01*
X12349950Y-8761810D01*
X12353645Y-8785137D01*
X12360943Y-8807600D01*
X12371666Y-8828643D01*
X12385548Y-8847751D01*
X12402249Y-8864452D01*
X12421357Y-8878334D01*
X12431299Y-8883400D01*
X12442400Y-8889057D01*
X12442400Y-8889057D01*
X12442401Y-8889057D01*
X12454441Y-8892969D01*
X12464863Y-8896355D01*
X12488190Y-8900050D01*
X12488191Y-8900050D01*
X12511810Y-8900050D01*
X12535137Y-8896355D01*
X12557599Y-8889057D01*
X12578643Y-8878334D01*
X12597751Y-8864452D01*
X12614452Y-8847751D01*
X12628334Y-8828643D01*
X12639057Y-8807599D01*
X12646355Y-8785137D01*
X12650050Y-8761810D01*
X12650050Y-8738190D01*
X14449950Y-8738190D01*
X14449950Y-8761810D01*
X14453645Y-8785137D01*
X14460943Y-8807600D01*
X14471666Y-8828643D01*
X14485548Y-8847751D01*
X14502249Y-8864452D01*
X14521357Y-8878334D01*
X14531299Y-8883400D01*
X14542400Y-8889057D01*
X14542400Y-8889057D01*
X14542401Y-8889057D01*
X14554441Y-8892969D01*
X14564863Y-8896355D01*
X14588190Y-8900050D01*
X14588191Y-8900050D01*
X14611810Y-8900050D01*
X14635137Y-8896355D01*
X14657599Y-8889057D01*
X14678643Y-8878334D01*
X14697751Y-8864452D01*
X14714452Y-8847751D01*
X14728334Y-8828643D01*
X14739057Y-8807599D01*
X14746355Y-8785137D01*
X14750050Y-8761810D01*
X14750050Y-8738190D01*
X14746355Y-8714863D01*
X14739057Y-8692400D01*
X14728334Y-8671357D01*
X14714452Y-8652249D01*
X14697751Y-8635548D01*
X14678643Y-8621666D01*
X14657600Y-8610943D01*
X14635137Y-8603645D01*
X14611810Y-8599950D01*
X14611809Y-8599950D01*
X14588191Y-8599950D01*
X14588190Y-8599950D01*
X14564863Y-8603645D01*
X14542400Y-8610943D01*
X14521357Y-8621666D01*
X14510455Y-8629586D01*
X14502249Y-8635548D01*
X14502249Y-8635549D01*
X14502249Y-8635549D01*
X14485548Y-8652249D01*
X14485548Y-8652249D01*
X14485548Y-8652249D01*
X14479586Y-8660455D01*
X14471666Y-8671357D01*
X14460943Y-8692400D01*
X14453645Y-8714863D01*
X14449950Y-8738190D01*
X12650050Y-8738190D01*
X12646355Y-8714863D01*
X12639057Y-8692400D01*
X12628334Y-8671357D01*
X12614452Y-8652249D01*
X12597751Y-8635548D01*
X12578643Y-8621666D01*
X12557600Y-8610943D01*
X12535137Y-8603645D01*
X12511810Y-8599950D01*
X12511809Y-8599950D01*
X12488191Y-8599950D01*
X12488190Y-8599950D01*
X12464863Y-8603645D01*
X12442400Y-8610943D01*
X12421357Y-8621666D01*
X12410455Y-8629586D01*
X12402249Y-8635548D01*
X12402249Y-8635549D01*
X12402249Y-8635549D01*
X12385548Y-8652249D01*
X12385548Y-8652249D01*
X12385548Y-8652249D01*
X12379586Y-8660455D01*
X12371666Y-8671357D01*
X12360943Y-8692400D01*
X12353645Y-8714863D01*
X12349950Y-8738190D01*
X11500000Y-8738190D01*
X11500000Y-7738190D01*
X12349950Y-7738190D01*
X12349950Y-7761810D01*
X12353645Y-7785137D01*
X12360943Y-7807600D01*
X12371666Y-7828643D01*
X12385548Y-7847751D01*
X12402249Y-7864452D01*
X12421357Y-7878334D01*
X12431299Y-7883400D01*
X12442400Y-7889057D01*
X12442400Y-7889057D01*
X12442401Y-7889057D01*
X12454441Y-7892969D01*
X12464863Y-7896355D01*
X12488190Y-7900050D01*
X12488191Y-7900050D01*
X12511810Y-7900050D01*
X12535137Y-7896355D01*
X12557599Y-7889057D01*
X12578643Y-7878334D01*
X12597751Y-7864452D01*
X12614452Y-7847751D01*
X12628334Y-7828643D01*
X12639057Y-7807599D01*
X12646355Y-7785137D01*
X12650050Y-7761810D01*
X12650050Y-7738190D01*
X14449950Y-7738190D01*
X14449950Y-7761810D01*
X14453645Y-7785137D01*
X14460943Y-7807600D01*
X14471666Y-7828643D01*
X14485548Y-7847751D01*
X14502249Y-7864452D01*
X14521357Y-7878334D01*
X14531299Y-7883400D01*
X14542400Y-7889057D01*
X14542400Y-7889057D01*
X14542401Y-7889057D01*
X14554441Y-7892969D01*
X14564863Y-7896355D01*
X14588190Y-7900050D01*
X14588191Y-7900050D01*
X14611810Y-7900050D01*
X14635137Y-7896355D01*
X14657599Y-7889057D01*
X14678643Y-7878334D01*
X14697751Y-7864452D01*
X14714452Y-7847751D01*
X14728334Y-7828643D01*
X14739057Y-7807599D01*
X14746355Y-7785137D01*
X14750050Y-7761810D01*
X14750050Y-7738190D01*
X14746355Y-7714863D01*
X14739057Y-7692400D01*
X14728334Y-7671357D01*
X14714452Y-7652249D01*
X14697751Y-7635548D01*
X14678643Y-7621666D01*
X14657600Y-7610943D01*
X14635137Y-7603645D01*
X14611810Y-7599950D01*
X14611809Y-7599950D01*
X14588191Y-7599950D01*
X14588190Y-7599950D01*
X14564863Y-7603645D01*
X14542400Y-7610943D01*
X14521357Y-7621666D01*
X14510455Y-7629586D01*
X14502249Y-7635548D01*
X14502249Y-7635548D01*
X14502249Y-7635548D01*
X14485548Y-7652249D01*
X14485548Y-7652249D01*
X14485548Y-7652249D01*
X14479586Y-7660455D01*
X14471666Y-7671357D01*
X14460943Y-7692400D01*
X14453645Y-7714863D01*
X14449950Y-7738190D01*
X12650050Y-7738190D01*
X12646355Y-7714863D01*
X12639057Y-7692400D01*
X12628334Y-7671357D01*
X12614452Y-7652249D01*
X12597751Y-7635548D01*
X12578643Y-7621666D01*
X12557600Y-7610943D01*
X12535137Y-7603645D01*
X12511810Y-7599950D01*
X12511809Y-7599950D01*
X12488191Y-7599950D01*
X12488190Y-7599950D01*
X12464863Y-7603645D01*
X12442400Y-7610943D01*
X12421357Y-7621666D01*
X12410455Y-7629586D01*
X12402249Y-7635548D01*
X12402249Y-7635548D01*
X12402249Y-7635548D01*
X12385548Y-7652249D01*
X12385548Y-7652249D01*
X12385548Y-7652249D01*
X12379586Y-7660455D01*
X12371666Y-7671357D01*
X12360943Y-7692400D01*
X12353645Y-7714863D01*
X12349950Y-7738190D01*
X11500000Y-7738190D01*
X11500000Y-6305136D01*
X11501968Y-6298432D01*
X11503632Y-6296368D01*
X11596368Y-6203632D01*
X11602500Y-6200283D01*
X11605136Y-6200000D01*
X15494864Y-6200000D01*
X15501568Y-6201968D01*
G37*
%TD.AperFunction*%
%TD*%
M02*
