%TF.GenerationSoftware,KiCad,Pcbnew,9.0.7*%
%TF.CreationDate,2026-03-31T09:01:16+01:00*%
%TF.ProjectId,AMODO_PSRR_INJECTOR_CBs_1,414d4f44-4f5f-4505-9352-525f494e4a45,rev?*%
%TF.SameCoordinates,Original*%
%TF.FileFunction,Soldermask,Bot*%
%TF.FilePolarity,Negative*%
%FSLAX45Y45*%
G04 Gerber Fmt 4.5, Leading zero omitted, Abs format (unit mm)*
G04 Created by KiCad (PCBNEW 9.0.7) date 2026-03-31 09:01:16*
%MOMM*%
%LPD*%
G01*
G04 APERTURE LIST*
%ADD10C,0.100000*%
%ADD11O,3.500000X3.500000*%
%ADD12O,3.000000X2.000000*%
%ADD13C,2.200000*%
%ADD14C,2.800000*%
%ADD15R,1.524000X1.524000*%
%ADD16C,1.524000*%
%ADD17C,1.200000*%
%ADD18C,6.600000*%
%ADD19C,2.000000*%
%ADD20R,1.778000X1.778000*%
%ADD21C,1.778000*%
G04 APERTURE END LIST*
D10*
X9350000Y-15150000D02*
X10350000Y-15150000D01*
X10350000Y-15500000D01*
X9350000Y-15500000D01*
X9350000Y-15150000D01*
G36*
X9350000Y-15150000D02*
G01*
X10350000Y-15150000D01*
X10350000Y-15500000D01*
X9350000Y-15500000D01*
X9350000Y-15150000D01*
G37*
D11*
%TO.C,J5*%
X17564000Y-13345000D03*
D12*
X18200000Y-13853000D03*
X18200000Y-12837000D03*
X17184000Y-13853000D03*
X17184000Y-12837000D03*
%TD*%
D13*
%TO.C,C5*%
X14600000Y-7750000D03*
X14600000Y-7250000D03*
%TD*%
D14*
%TO.C,J4*%
X17200000Y-14800000D03*
X16946000Y-14546000D03*
X16946000Y-15054000D03*
X17454000Y-14546000D03*
X17454000Y-15054000D03*
%TD*%
D11*
%TO.C,J7*%
X17565000Y-7650000D03*
D12*
X18201000Y-8158000D03*
X18201000Y-7142000D03*
X17185000Y-8158000D03*
X17185000Y-7142000D03*
%TD*%
D15*
%TO.C,TP10*%
X10100000Y-12700000D03*
D16*
X10100000Y-12446000D03*
X10100000Y-12192000D03*
%TD*%
D17*
%TO.C,H4*%
X8060000Y-14800000D03*
X8130294Y-14630294D03*
X8130294Y-14969706D03*
X8300000Y-14560000D03*
D18*
X8300000Y-14800000D03*
D17*
X8300000Y-15040000D03*
X8469706Y-14630294D03*
X8469706Y-14969706D03*
X8540000Y-14800000D03*
%TD*%
%TO.C,H3*%
X18060000Y-14800000D03*
X18130294Y-14630294D03*
X18130294Y-14969706D03*
X18300000Y-14560000D03*
D18*
X18300000Y-14800000D03*
D17*
X18300000Y-15040000D03*
X18469706Y-14630294D03*
X18469706Y-14969706D03*
X18540000Y-14800000D03*
%TD*%
D19*
%TO.C,TP9*%
X10600000Y-7650000D03*
%TD*%
D13*
%TO.C,C7*%
X14600000Y-8750000D03*
X14600000Y-9250000D03*
%TD*%
%TO.C,C6*%
X12500000Y-8750000D03*
X12500000Y-9250000D03*
%TD*%
D11*
%TO.C,J2*%
X9100000Y-13350000D03*
D12*
X8464000Y-12842000D03*
X8464000Y-13858000D03*
X9480000Y-12842000D03*
X9480000Y-13858000D03*
%TD*%
D13*
%TO.C,C4*%
X14600000Y-13750000D03*
X14600000Y-13250000D03*
%TD*%
D17*
%TO.C,H1*%
X18060000Y-6200000D03*
X18130294Y-6030294D03*
X18130294Y-6369706D03*
X18300000Y-5960000D03*
D18*
X18300000Y-6200000D03*
D17*
X18300000Y-6440000D03*
X18469706Y-6030294D03*
X18469706Y-6369706D03*
X18540000Y-6200000D03*
%TD*%
D15*
%TO.C,TP5*%
X16564000Y-12704000D03*
D16*
X16564000Y-12450000D03*
X16564000Y-12196000D03*
%TD*%
D13*
%TO.C,C3*%
X12500000Y-13750000D03*
X12500000Y-13250000D03*
%TD*%
D19*
%TO.C,TP4*%
X16600000Y-7650000D03*
%TD*%
D15*
%TO.C,TP11*%
X10100000Y-8296000D03*
D16*
X10100000Y-8550000D03*
X10100000Y-8804000D03*
%TD*%
D15*
%TO.C,TP6*%
X16560000Y-8296000D03*
D16*
X16560000Y-8550000D03*
X16560000Y-8804000D03*
%TD*%
D19*
%TO.C,TP8*%
X10100000Y-10500000D03*
%TD*%
D13*
%TO.C,C1*%
X12500000Y-11750000D03*
X12500000Y-12250000D03*
%TD*%
D11*
%TO.C,J9*%
X17564000Y-11450000D03*
D12*
X18200000Y-11958000D03*
X18200000Y-10942000D03*
X17184000Y-11958000D03*
X17184000Y-10942000D03*
%TD*%
D11*
%TO.C,J6*%
X17564000Y-9550000D03*
D12*
X18200000Y-10058000D03*
X18200000Y-9042000D03*
X17184000Y-10058000D03*
X17184000Y-9042000D03*
%TD*%
D17*
%TO.C,H2*%
X8060000Y-6200000D03*
X8130294Y-6030294D03*
X8130294Y-6369706D03*
X8300000Y-5960000D03*
D18*
X8300000Y-6200000D03*
D17*
X8300000Y-6440000D03*
X8469706Y-6030294D03*
X8469706Y-6369706D03*
X8540000Y-6200000D03*
%TD*%
D14*
%TO.C,J10*%
X17200000Y-6200000D03*
X16946000Y-5946000D03*
X16946000Y-6454000D03*
X17454000Y-5946000D03*
X17454000Y-6454000D03*
%TD*%
D19*
%TO.C,TP3*%
X16600000Y-10500000D03*
%TD*%
%TO.C,TP7*%
X10600000Y-13350000D03*
%TD*%
%TO.C,TP2*%
X16600000Y-13350000D03*
%TD*%
D11*
%TO.C,J3*%
X9100000Y-9550000D03*
D12*
X8464000Y-9042000D03*
X8464000Y-10058000D03*
X9480000Y-9042000D03*
X9480000Y-10058000D03*
%TD*%
D19*
%TO.C,TP12*%
X15800000Y-6190000D03*
%TD*%
%TO.C,TP1*%
X15800000Y-14800000D03*
%TD*%
D11*
%TO.C,J1*%
X9100000Y-7650000D03*
D12*
X8464000Y-7142000D03*
X8464000Y-8158000D03*
X9480000Y-7142000D03*
X9480000Y-8158000D03*
%TD*%
D13*
%TO.C,C2*%
X14600000Y-11750000D03*
X14600000Y-12250000D03*
%TD*%
%TO.C,C8*%
X12500000Y-7750000D03*
X12500000Y-7250000D03*
%TD*%
D20*
%TO.C,J11*%
X13900000Y-10604000D03*
D21*
X13900000Y-10350000D03*
%TD*%
D11*
%TO.C,J8*%
X9100000Y-11450000D03*
D12*
X8464000Y-10942000D03*
X8464000Y-11958000D03*
X9480000Y-10942000D03*
X9480000Y-11958000D03*
%TD*%
M02*
