%TF.GenerationSoftware,KiCad,Pcbnew,9.0.7*%
%TF.CreationDate,2026-03-31T09:01:16+01:00*%
%TF.ProjectId,AMODO_PSRR_INJECTOR_CBs_1,414d4f44-4f5f-4505-9352-525f494e4a45,rev?*%
%TF.SameCoordinates,Original*%
%TF.FileFunction,Copper,L1,Top*%
%TF.FilePolarity,Positive*%
%FSLAX45Y45*%
G04 Gerber Fmt 4.5, Leading zero omitted, Abs format (unit mm)*
G04 Created by KiCad (PCBNEW 9.0.7) date 2026-03-31 09:01:16*
%MOMM*%
%LPD*%
G01*
G04 APERTURE LIST*
G04 Aperture macros list*
%AMRoundRect*
0 Rectangle with rounded corners*
0 $1 Rounding radius*
0 $2 $3 $4 $5 $6 $7 $8 $9 X,Y pos of 4 corners*
0 Add a 4 corners polygon primitive as box body*
4,1,4,$2,$3,$4,$5,$6,$7,$8,$9,$2,$3,0*
0 Add four circle primitives for the rounded corners*
1,1,$1+$1,$2,$3*
1,1,$1+$1,$4,$5*
1,1,$1+$1,$6,$7*
1,1,$1+$1,$8,$9*
0 Add four rect primitives between the rounded corners*
20,1,$1+$1,$2,$3,$4,$5,0*
20,1,$1+$1,$4,$5,$6,$7,0*
20,1,$1+$1,$6,$7,$8,$9,0*
20,1,$1+$1,$8,$9,$2,$3,0*%
G04 Aperture macros list end*
%ADD10C,0.300000*%
%TA.AperFunction,NonConductor*%
%ADD11C,0.300000*%
%TD*%
%TA.AperFunction,ComponentPad*%
%ADD12O,3.500000X3.500000*%
%TD*%
%TA.AperFunction,ComponentPad*%
%ADD13O,3.000000X2.000000*%
%TD*%
%TA.AperFunction,ComponentPad*%
%ADD14C,2.000000*%
%TD*%
%TA.AperFunction,SMDPad,CuDef*%
%ADD15RoundRect,0.180000X0.420000X-0.820000X0.420000X0.820000X-0.420000X0.820000X-0.420000X-0.820000X0*%
%TD*%
%TA.AperFunction,ComponentPad*%
%ADD16C,2.800000*%
%TD*%
%TA.AperFunction,SMDPad,CuDef*%
%ADD17RoundRect,0.250000X-0.312500X-0.625000X0.312500X-0.625000X0.312500X0.625000X-0.312500X0.625000X0*%
%TD*%
%TA.AperFunction,SMDPad,CuDef*%
%ADD18RoundRect,0.200000X0.200000X0.275000X-0.200000X0.275000X-0.200000X-0.275000X0.200000X-0.275000X0*%
%TD*%
%TA.AperFunction,ComponentPad*%
%ADD19R,1.524000X1.524000*%
%TD*%
%TA.AperFunction,ComponentPad*%
%ADD20C,1.524000*%
%TD*%
%TA.AperFunction,ComponentPad*%
%ADD21C,1.200000*%
%TD*%
%TA.AperFunction,ComponentPad*%
%ADD22C,6.400000*%
%TD*%
%TA.AperFunction,SMDPad,CuDef*%
%ADD23RoundRect,0.200000X-0.275000X0.200000X-0.275000X-0.200000X0.275000X-0.200000X0.275000X0.200000X0*%
%TD*%
%TA.AperFunction,ComponentPad*%
%ADD24R,1.778000X1.778000*%
%TD*%
%TA.AperFunction,ComponentPad*%
%ADD25C,1.778000*%
%TD*%
%TA.AperFunction,ViaPad*%
%ADD26C,1.000000*%
%TD*%
%TA.AperFunction,Conductor*%
%ADD27C,2.000000*%
%TD*%
%TA.AperFunction,Conductor*%
%ADD28C,0.500000*%
%TD*%
G04 APERTURE END LIST*
D10*
D11*
X9584023Y-15380083D02*
X9498308Y-15380083D01*
X9541165Y-15380083D02*
X9541165Y-15230083D01*
X9541165Y-15230083D02*
X9526880Y-15251511D01*
X9526880Y-15251511D02*
X9512594Y-15265797D01*
X9512594Y-15265797D02*
X9498308Y-15272940D01*
D12*
%TO.P,J5,1,1*%
%TO.N,Net-(J5-Pad1)*%
X17564000Y-13345000D03*
D13*
%TO.P,J5,2,MH*%
%TO.N,unconnected-(J5-MH-Pad2)*%
X18200000Y-13853000D03*
%TO.N,unconnected-(J5-MH-Pad2)_1*%
X18200000Y-12837000D03*
%TO.N,unconnected-(J5-MH-Pad2)_2*%
X17184000Y-13853000D03*
%TO.N,unconnected-(J5-MH-Pad2)_3*%
X17184000Y-12837000D03*
%TD*%
D14*
%TO.P,C5,1*%
%TO.N,Net-(C5-Pad1)*%
X14600000Y-7750000D03*
%TO.P,C5,2*%
%TO.N,/-Vinj*%
X14600000Y-7250000D03*
%TD*%
D15*
%TO.P,L1,1,1*%
%TO.N,Net-(L1-Pad1)*%
X10848000Y-12525000D03*
%TO.P,L1,2,2*%
%TO.N,Net-(L1-Pad2)*%
X11102000Y-12525000D03*
%TO.P,L1,3,3*%
%TO.N,Net-(L1-Pad3)*%
X11102000Y-11775000D03*
%TO.P,L1,4,4*%
%TO.N,Net-(L1-Pad4)*%
X10848000Y-11775000D03*
%TD*%
D16*
%TO.P,J4,1,In*%
%TO.N,Net-(J4-In)*%
X17200000Y-14800000D03*
%TO.P,J4,2,Ext*%
%TO.N,GND*%
X16946000Y-14546000D03*
X16946000Y-15054000D03*
X17454000Y-14546000D03*
X17454000Y-15054000D03*
%TD*%
D12*
%TO.P,J7,1,1*%
%TO.N,Net-(J7-Pad1)*%
X17565000Y-7650000D03*
D13*
%TO.P,J7,2,MH*%
%TO.N,unconnected-(J7-MH-Pad2)*%
X18201000Y-8158000D03*
%TO.N,unconnected-(J7-MH-Pad2)_1*%
X18201000Y-7142000D03*
%TO.N,unconnected-(J7-MH-Pad2)_2*%
X17185000Y-8158000D03*
%TO.N,unconnected-(J7-MH-Pad2)_3*%
X17185000Y-7142000D03*
%TD*%
D17*
%TO.P,R3,1*%
%TO.N,Net-(C5-Pad1)*%
X16003750Y-7650000D03*
%TO.P,R3,2*%
%TO.N,Net-(J7-Pad1)*%
X16296250Y-7650000D03*
%TD*%
D18*
%TO.P,R8,1*%
%TO.N,Net-(J4-In)*%
X16250000Y-14797500D03*
%TO.P,R8,2*%
%TO.N,/+Vinj*%
X16085000Y-14797500D03*
%TD*%
D17*
%TO.P,R4,1*%
%TO.N,Net-(J2-Pad1)*%
X9953750Y-13350000D03*
%TO.P,R4,2*%
%TO.N,Net-(L1-Pad1)*%
X10246250Y-13350000D03*
%TD*%
D19*
%TO.P,TP10,1,1*%
%TO.N,Net-(J2-Pad1)*%
X10100000Y-12700000D03*
D20*
%TO.P,TP10,2,2*%
%TO.N,GND*%
X10100000Y-12446000D03*
X10100000Y-12192000D03*
%TD*%
D21*
%TO.P,H4,1*%
%TO.N,GND*%
X8060000Y-14800000D03*
X8130294Y-14630294D03*
X8130294Y-14969706D03*
X8300000Y-14560000D03*
D22*
X8300000Y-14800000D03*
D21*
X8300000Y-15040000D03*
X8469706Y-14630294D03*
X8469706Y-14969706D03*
X8540000Y-14800000D03*
%TD*%
%TO.P,H3,1*%
%TO.N,GND*%
X18060000Y-14800000D03*
X18130294Y-14630294D03*
X18130294Y-14969706D03*
X18300000Y-14560000D03*
D22*
X18300000Y-14800000D03*
D21*
X18300000Y-15040000D03*
X18469706Y-14630294D03*
X18469706Y-14969706D03*
X18540000Y-14800000D03*
%TD*%
D15*
%TO.P,L3,1,1*%
%TO.N,Net-(L2-Pad4)*%
X10848000Y-10325000D03*
%TO.P,L3,2,2*%
%TO.N,Net-(L2-Pad3)*%
X11102000Y-10325000D03*
%TO.P,L3,3,3*%
%TO.N,Net-(L3-Pad3)*%
X11102000Y-9575000D03*
%TO.P,L3,4,4*%
%TO.N,Net-(L3-Pad4)*%
X10848000Y-9575000D03*
%TD*%
D17*
%TO.P,R6,1*%
%TO.N,Net-(J1-Pad1)*%
X9953750Y-7650000D03*
%TO.P,R6,2*%
%TO.N,Net-(L1-Pad2)*%
X10246250Y-7650000D03*
%TD*%
D14*
%TO.P,TP9,1,1*%
%TO.N,Net-(L1-Pad2)*%
X10600000Y-7650000D03*
%TD*%
%TO.P,C7,1*%
%TO.N,Net-(C5-Pad1)*%
X14600000Y-8750000D03*
%TO.P,C7,2*%
%TO.N,/-Vinj*%
X14600000Y-9250000D03*
%TD*%
%TO.P,C6,1*%
%TO.N,Net-(C5-Pad1)*%
X12500000Y-8750000D03*
%TO.P,C6,2*%
%TO.N,/-Vinj*%
X12500000Y-9250000D03*
%TD*%
D12*
%TO.P,J2,1,1*%
%TO.N,Net-(J2-Pad1)*%
X9100000Y-13350000D03*
D13*
%TO.P,J2,2,MH*%
%TO.N,unconnected-(J2-MH-Pad2)*%
X8464000Y-12842000D03*
%TO.N,unconnected-(J2-MH-Pad2)_1*%
X8464000Y-13858000D03*
%TO.N,unconnected-(J2-MH-Pad2)_2*%
X9480000Y-12842000D03*
%TO.N,unconnected-(J2-MH-Pad2)_3*%
X9480000Y-13858000D03*
%TD*%
D14*
%TO.P,C4,1*%
%TO.N,/+Vinj*%
X14600000Y-13750000D03*
%TO.P,C4,2*%
%TO.N,Net-(C1-Pad2)*%
X14600000Y-13250000D03*
%TD*%
D15*
%TO.P,L2,1,1*%
%TO.N,Net-(L1-Pad4)*%
X10848000Y-11425000D03*
%TO.P,L2,2,2*%
%TO.N,Net-(L1-Pad3)*%
X11102000Y-11425000D03*
%TO.P,L2,3,3*%
%TO.N,Net-(L2-Pad3)*%
X11102000Y-10675000D03*
%TO.P,L2,4,4*%
%TO.N,Net-(L2-Pad4)*%
X10848000Y-10675000D03*
%TD*%
D18*
%TO.P,R2,1*%
%TO.N,Net-(J10-In)*%
X16273000Y-6190000D03*
%TO.P,R2,2*%
%TO.N,/-Vinj*%
X16108000Y-6190000D03*
%TD*%
D21*
%TO.P,H1,1*%
%TO.N,GND*%
X18060000Y-6200000D03*
X18130294Y-6030294D03*
X18130294Y-6369706D03*
X18300000Y-5960000D03*
D22*
X18300000Y-6200000D03*
D21*
X18300000Y-6440000D03*
X18469706Y-6030294D03*
X18469706Y-6369706D03*
X18540000Y-6200000D03*
%TD*%
D19*
%TO.P,TP5,1,1*%
%TO.N,Net-(J5-Pad1)*%
X16564000Y-12704000D03*
D20*
%TO.P,TP5,2,2*%
%TO.N,GND*%
X16564000Y-12450000D03*
X16564000Y-12196000D03*
%TD*%
D14*
%TO.P,C3,1*%
%TO.N,/+Vinj*%
X12500000Y-13750000D03*
%TO.P,C3,2*%
%TO.N,Net-(C1-Pad2)*%
X12500000Y-13250000D03*
%TD*%
D23*
%TO.P,R5,1*%
%TO.N,Net-(J10-In)*%
X16500000Y-6190000D03*
%TO.P,R5,2*%
%TO.N,GND*%
X16500000Y-6355000D03*
%TD*%
D14*
%TO.P,TP4,1,1*%
%TO.N,Net-(J7-Pad1)*%
X16600000Y-7650000D03*
%TD*%
D19*
%TO.P,TP11,1,1*%
%TO.N,Net-(J1-Pad1)*%
X10100000Y-8296000D03*
D20*
%TO.P,TP11,2,2*%
%TO.N,GND*%
X10100000Y-8550000D03*
X10100000Y-8804000D03*
%TD*%
D19*
%TO.P,TP6,1,1*%
%TO.N,Net-(J7-Pad1)*%
X16560000Y-8296000D03*
D20*
%TO.P,TP6,2,2*%
%TO.N,GND*%
X16560000Y-8550000D03*
X16560000Y-8804000D03*
%TD*%
D17*
%TO.P,R1,1*%
%TO.N,Net-(C1-Pad2)*%
X16003750Y-13350000D03*
%TO.P,R1,2*%
%TO.N,Net-(J5-Pad1)*%
X16296250Y-13350000D03*
%TD*%
D14*
%TO.P,TP8,1,1*%
%TO.N,GND*%
X10100000Y-10500000D03*
%TD*%
%TO.P,C1,1*%
%TO.N,/+Vinj*%
X12500000Y-11750000D03*
%TO.P,C1,2*%
%TO.N,Net-(C1-Pad2)*%
X12500000Y-12250000D03*
%TD*%
D12*
%TO.P,J9,1,1*%
%TO.N,GND*%
X17564000Y-11450000D03*
D13*
%TO.P,J9,2,MH*%
%TO.N,unconnected-(J9-MH-Pad2)*%
X18200000Y-11958000D03*
%TO.N,unconnected-(J9-MH-Pad2)_1*%
X18200000Y-10942000D03*
%TO.N,unconnected-(J9-MH-Pad2)_2*%
X17184000Y-11958000D03*
%TO.N,unconnected-(J9-MH-Pad2)_3*%
X17184000Y-10942000D03*
%TD*%
D12*
%TO.P,J6,1,1*%
%TO.N,GND*%
X17564000Y-9550000D03*
D13*
%TO.P,J6,2,MH*%
%TO.N,unconnected-(J6-MH-Pad2)*%
X18200000Y-10058000D03*
%TO.N,unconnected-(J6-MH-Pad2)_1*%
X18200000Y-9042000D03*
%TO.N,unconnected-(J6-MH-Pad2)_2*%
X17184000Y-10058000D03*
%TO.N,unconnected-(J6-MH-Pad2)_3*%
X17184000Y-9042000D03*
%TD*%
D21*
%TO.P,H2,1*%
%TO.N,GND*%
X8060000Y-6200000D03*
X8130294Y-6030294D03*
X8130294Y-6369706D03*
X8300000Y-5960000D03*
D22*
X8300000Y-6200000D03*
D21*
X8300000Y-6440000D03*
X8469706Y-6030294D03*
X8469706Y-6369706D03*
X8540000Y-6200000D03*
%TD*%
D16*
%TO.P,J10,1,In*%
%TO.N,Net-(J10-In)*%
X17200000Y-6200000D03*
%TO.P,J10,2,Ext*%
%TO.N,GND*%
X16946000Y-5946000D03*
X16946000Y-6454000D03*
X17454000Y-5946000D03*
X17454000Y-6454000D03*
%TD*%
D14*
%TO.P,TP3,1,1*%
%TO.N,GND*%
X16600000Y-10500000D03*
%TD*%
%TO.P,TP7,1,1*%
%TO.N,Net-(L1-Pad1)*%
X10600000Y-13350000D03*
%TD*%
%TO.P,TP2,1,1*%
%TO.N,Net-(J5-Pad1)*%
X16600000Y-13350000D03*
%TD*%
D12*
%TO.P,J3,1,1*%
%TO.N,GND*%
X9100000Y-9550000D03*
D13*
%TO.P,J3,2,MH*%
%TO.N,unconnected-(J3-MH-Pad2)*%
X8464000Y-9042000D03*
%TO.N,unconnected-(J3-MH-Pad2)_1*%
X8464000Y-10058000D03*
%TO.N,unconnected-(J3-MH-Pad2)_2*%
X9480000Y-9042000D03*
%TO.N,unconnected-(J3-MH-Pad2)_3*%
X9480000Y-10058000D03*
%TD*%
D14*
%TO.P,TP12,1,1*%
%TO.N,/-Vinj*%
X15800000Y-6190000D03*
%TD*%
%TO.P,TP1,1,1*%
%TO.N,/+Vinj*%
X15800000Y-14800000D03*
%TD*%
D23*
%TO.P,R7,1*%
%TO.N,Net-(J4-In)*%
X16480000Y-14797500D03*
%TO.P,R7,2*%
%TO.N,GND*%
X16480000Y-14962500D03*
%TD*%
D12*
%TO.P,J1,1,1*%
%TO.N,Net-(J1-Pad1)*%
X9100000Y-7650000D03*
D13*
%TO.P,J1,2,MH*%
%TO.N,unconnected-(J1-MH-Pad2)*%
X8464000Y-7142000D03*
%TO.N,unconnected-(J1-MH-Pad2)_1*%
X8464000Y-8158000D03*
%TO.N,unconnected-(J1-MH-Pad2)_2*%
X9480000Y-7142000D03*
%TO.N,unconnected-(J1-MH-Pad2)_3*%
X9480000Y-8158000D03*
%TD*%
D14*
%TO.P,C2,1*%
%TO.N,/+Vinj*%
X14600000Y-11750000D03*
%TO.P,C2,2*%
%TO.N,Net-(C1-Pad2)*%
X14600000Y-12250000D03*
%TD*%
%TO.P,C8,1*%
%TO.N,Net-(C5-Pad1)*%
X12500000Y-7750000D03*
%TO.P,C8,2*%
%TO.N,/-Vinj*%
X12500000Y-7250000D03*
%TD*%
D24*
%TO.P,J11,1,1*%
%TO.N,/+Vinj*%
X13900000Y-10604000D03*
D25*
%TO.P,J11,2,2*%
%TO.N,/-Vinj*%
X13900000Y-10350000D03*
%TD*%
D12*
%TO.P,J8,1,1*%
%TO.N,GND*%
X9100000Y-11450000D03*
D13*
%TO.P,J8,2,MH*%
%TO.N,unconnected-(J8-MH-Pad2)*%
X8464000Y-10942000D03*
%TO.N,unconnected-(J8-MH-Pad2)_1*%
X8464000Y-11958000D03*
%TO.N,unconnected-(J8-MH-Pad2)_2*%
X9480000Y-10942000D03*
%TO.N,unconnected-(J8-MH-Pad2)_3*%
X9480000Y-11958000D03*
%TD*%
D15*
%TO.P,L4,1,1*%
%TO.N,Net-(L3-Pad4)*%
X10848000Y-9225000D03*
%TO.P,L4,2,2*%
%TO.N,Net-(L3-Pad3)*%
X11102000Y-9225000D03*
%TO.P,L4,3,3*%
%TO.N,Net-(C5-Pad1)*%
X11102000Y-8475000D03*
%TO.P,L4,4,4*%
%TO.N,Net-(C1-Pad2)*%
X10848000Y-8475000D03*
%TD*%
D26*
%TO.N,GND*%
X11250000Y-15250000D03*
X7750000Y-9250000D03*
X14250000Y-5750000D03*
X10750000Y-5750000D03*
X7750000Y-8750000D03*
X18750000Y-11250000D03*
X11250000Y-5750000D03*
X17750000Y-5750000D03*
X15750000Y-15250000D03*
X18750000Y-10750000D03*
X7750000Y-9750000D03*
X7750000Y-13750000D03*
X11750000Y-5750000D03*
X18750000Y-8250000D03*
X8750000Y-5750000D03*
X13250000Y-15250000D03*
X7750000Y-10250000D03*
X9250000Y-15250000D03*
X12750000Y-15250000D03*
X7750000Y-12250000D03*
X7750000Y-11750000D03*
X15250000Y-5750000D03*
X13250000Y-5750000D03*
X9250000Y-5750000D03*
X16250000Y-5750000D03*
X8750000Y-15250000D03*
X17750000Y-15250000D03*
X18750000Y-13750000D03*
X18750000Y-12250000D03*
X17250000Y-15250000D03*
X18750000Y-10250000D03*
X12750000Y-5750000D03*
X7750000Y-11250000D03*
X12250000Y-5750000D03*
X10750000Y-15250000D03*
X7750000Y-13250000D03*
X18750000Y-13250000D03*
X14750000Y-5750000D03*
X18750000Y-9250000D03*
X18750000Y-12750000D03*
X18750000Y-7750000D03*
X7750000Y-8250000D03*
X17250000Y-5750000D03*
X9750000Y-5750000D03*
X16500000Y-15100000D03*
X18750000Y-11750000D03*
X18750000Y-6750000D03*
X16500000Y-6490000D03*
X16750000Y-5750000D03*
X11750000Y-15250000D03*
X15250000Y-15250000D03*
X18750000Y-7250000D03*
X7750000Y-10750000D03*
X16750000Y-15250000D03*
X12250000Y-15250000D03*
X14750000Y-15250000D03*
X18750000Y-8750000D03*
X7750000Y-7750000D03*
X7750000Y-6750000D03*
X10250000Y-5750000D03*
X13750000Y-15250000D03*
X7750000Y-7250000D03*
X18750000Y-9750000D03*
X16250000Y-15250000D03*
X15750000Y-5750000D03*
X14250000Y-15250000D03*
X18750000Y-14250000D03*
X13750000Y-5750000D03*
X7750000Y-14250000D03*
X7750000Y-12750000D03*
%TO.N,/+Vinj*%
X12750000Y-11250000D03*
X14250000Y-14500000D03*
X12250000Y-11250000D03*
X13500000Y-11250000D03*
X15000000Y-11250000D03*
X12250000Y-14500000D03*
X14000000Y-14500000D03*
X12000000Y-14250000D03*
X13250000Y-11250000D03*
X13750000Y-14250000D03*
X15000000Y-11000000D03*
X13000000Y-14250000D03*
X13000000Y-11000000D03*
X14750000Y-11250000D03*
X14000000Y-11250000D03*
X12500000Y-11000000D03*
X14250000Y-11250000D03*
X13750000Y-11000000D03*
X13250000Y-11000000D03*
X12750000Y-11000000D03*
X13750000Y-14500000D03*
X15000000Y-14250000D03*
X13750000Y-11250000D03*
X14500000Y-11250000D03*
X14750000Y-14250000D03*
X14000000Y-11000000D03*
X14250000Y-14250000D03*
X14500000Y-11000000D03*
X12250000Y-11000000D03*
X14500000Y-14250000D03*
X14250000Y-11000000D03*
X12000000Y-14500000D03*
X12750000Y-14500000D03*
X14000000Y-14250000D03*
X13500000Y-11000000D03*
X13500000Y-14500000D03*
X12500000Y-14250000D03*
X13000000Y-14500000D03*
X15000000Y-14500000D03*
X13000000Y-11250000D03*
X12000000Y-11250000D03*
X12500000Y-11250000D03*
X12500000Y-14500000D03*
X14750000Y-11000000D03*
X12000000Y-11000000D03*
X13250000Y-14250000D03*
X13250000Y-14500000D03*
X12750000Y-14250000D03*
X12250000Y-14250000D03*
X14500000Y-14500000D03*
X13500000Y-14250000D03*
X14750000Y-14500000D03*
%TO.N,/-Vinj*%
X13250000Y-10000000D03*
X15000000Y-6750000D03*
X14000000Y-6500000D03*
X12000000Y-6500000D03*
X13000000Y-9750000D03*
X12500000Y-10000000D03*
X14000000Y-9750000D03*
X12250000Y-6500000D03*
X12750000Y-6500000D03*
X13500000Y-9750000D03*
X12250000Y-6750000D03*
X12000000Y-10000000D03*
X13750000Y-9750000D03*
X12000000Y-9750000D03*
X14750000Y-10000000D03*
X15000000Y-6500000D03*
X12000000Y-6750000D03*
X13750000Y-6500000D03*
X12250000Y-9750000D03*
X15000000Y-9750000D03*
X12250000Y-10000000D03*
X15000000Y-10000000D03*
X14000000Y-10000000D03*
X14500000Y-9750000D03*
X14500000Y-10000000D03*
X14750000Y-6750000D03*
X14500000Y-6750000D03*
X13250000Y-9750000D03*
X12500000Y-6500000D03*
X13750000Y-6750000D03*
X14250000Y-10000000D03*
X13250000Y-6500000D03*
X14250000Y-6750000D03*
X13750000Y-10000000D03*
X12750000Y-6750000D03*
X13500000Y-10000000D03*
X13000000Y-6750000D03*
X13000000Y-10000000D03*
X13250000Y-6750000D03*
X14000000Y-6750000D03*
X13000000Y-6500000D03*
X12500000Y-6750000D03*
X14250000Y-9750000D03*
X14750000Y-6500000D03*
X14750000Y-9750000D03*
X13500000Y-6500000D03*
X12500000Y-9750000D03*
X13500000Y-6750000D03*
X12750000Y-10000000D03*
X14500000Y-6500000D03*
X12750000Y-9750000D03*
X14250000Y-6500000D03*
%TD*%
D27*
%TO.N,Net-(C1-Pad2)*%
X16003750Y-13350000D02*
X14675000Y-13350000D01*
X11575000Y-12375000D02*
X12500000Y-12375000D01*
X11475000Y-8975000D02*
X11475000Y-12275000D01*
X11000000Y-8800000D02*
X11300000Y-8800000D01*
X10848000Y-8648000D02*
X11000000Y-8800000D01*
X11475000Y-12275000D02*
X11575000Y-12375000D01*
X11300000Y-8800000D02*
X11475000Y-8975000D01*
X10848000Y-8475000D02*
X10848000Y-8648000D01*
%TO.N,Net-(C5-Pad1)*%
X12350000Y-8475000D02*
X12500000Y-8625000D01*
X11102000Y-8475000D02*
X12350000Y-8475000D01*
X16003750Y-7650000D02*
X14675000Y-7650000D01*
%TO.N,Net-(J1-Pad1)*%
X9100000Y-7650000D02*
X9953750Y-7650000D01*
X9953750Y-8149750D02*
X9953750Y-7650000D01*
X10100000Y-8296000D02*
X9953750Y-8149750D01*
%TO.N,Net-(J2-Pad1)*%
X10100000Y-12704000D02*
X9953750Y-12850250D01*
X9100000Y-13350000D02*
X9953750Y-13350000D01*
X9953750Y-12850250D02*
X9953750Y-13350000D01*
D28*
%TO.N,Net-(J4-In)*%
X17200000Y-14800000D02*
X16273000Y-14800000D01*
%TO.N,GND*%
X16500000Y-14965000D02*
X16500000Y-15100000D01*
X16500000Y-6375000D02*
X16500000Y-6490000D01*
D27*
%TO.N,Net-(J5-Pad1)*%
X16564000Y-12704000D02*
X16564000Y-13314000D01*
X16564000Y-13314000D02*
X16600000Y-13350000D01*
X16296250Y-13350000D02*
X17564000Y-13350000D01*
%TO.N,Net-(J7-Pad1)*%
X16564000Y-7686000D02*
X16600000Y-7650000D01*
X16564000Y-8296000D02*
X16564000Y-7686000D01*
X16296250Y-7650000D02*
X17564000Y-7650000D01*
%TO.N,Net-(L1-Pad1)*%
X10246250Y-13350000D02*
X10600000Y-13350000D01*
X10600000Y-13350000D02*
X10848000Y-13102000D01*
X10848000Y-13102000D02*
X10848000Y-12525000D01*
%TO.N,Net-(L1-Pad2)*%
X10475000Y-7650000D02*
X10600000Y-7650000D01*
X10246250Y-7650000D02*
X10475000Y-7650000D01*
X10927000Y-12250000D02*
X10800000Y-12250000D01*
X10800000Y-12250000D02*
X10475000Y-11925000D01*
X10475000Y-11925000D02*
X10475000Y-7650000D01*
X11102000Y-12525000D02*
X11102000Y-12425000D01*
X11102000Y-12425000D02*
X10927000Y-12250000D01*
%TO.N,Net-(L1-Pad3)*%
X11102000Y-11775000D02*
X11102000Y-11425000D01*
%TO.N,Net-(L1-Pad4)*%
X10848000Y-11775000D02*
X10848000Y-11425000D01*
%TO.N,Net-(L2-Pad4)*%
X10848000Y-10675000D02*
X10829800Y-10656800D01*
X10829800Y-10656800D02*
X10829800Y-10325000D01*
%TO.N,Net-(L2-Pad3)*%
X11102000Y-10325000D02*
X11102000Y-10675000D01*
%TO.N,Net-(L3-Pad4)*%
X10848000Y-9225000D02*
X10848000Y-9575000D01*
%TO.N,Net-(L3-Pad3)*%
X11102000Y-9575000D02*
X11102000Y-9225000D01*
D28*
%TO.N,/+Vinj*%
X15400000Y-14800000D02*
X15200000Y-14600000D01*
X15800000Y-14800000D02*
X15400000Y-14800000D01*
X16108000Y-14800000D02*
X15800000Y-14800000D01*
X15200000Y-14600000D02*
X15200000Y-14200000D01*
%TO.N,/-Vinj*%
X15800000Y-6190000D02*
X15400000Y-6190000D01*
X15400000Y-6190000D02*
X15200000Y-6390000D01*
X15200000Y-6390000D02*
X15200000Y-6800000D01*
X16097500Y-6190000D02*
X15800000Y-6190000D01*
%TO.N,Net-(J10-In)*%
X17200000Y-6190000D02*
X16262500Y-6190000D01*
%TD*%
%TA.AperFunction,Conductor*%
%TO.N,/+Vinj*%
G36*
X15301568Y-13601968D02*
G01*
X15303632Y-13603632D01*
X15396368Y-13696368D01*
X15399717Y-13702500D01*
X15400000Y-13705136D01*
X15400000Y-14694864D01*
X15398031Y-14701568D01*
X15396368Y-14703632D01*
X15303632Y-14796368D01*
X15297500Y-14799717D01*
X15294864Y-14800000D01*
X11805136Y-14800000D01*
X11798432Y-14798031D01*
X11796368Y-14796368D01*
X11703632Y-14703632D01*
X11700283Y-14697500D01*
X11700000Y-14694864D01*
X11700000Y-13705136D01*
X11701968Y-13698432D01*
X11703632Y-13696368D01*
X11796368Y-13603632D01*
X11802500Y-13600283D01*
X11805136Y-13600000D01*
X15294864Y-13600000D01*
X15301568Y-13601968D01*
G37*
%TD.AperFunction*%
%TD*%
%TA.AperFunction,Conductor*%
%TO.N,Net-(C5-Pad1)*%
G36*
X15301568Y-7601968D02*
G01*
X15303632Y-7603632D01*
X15396368Y-7696368D01*
X15399717Y-7702500D01*
X15400000Y-7705136D01*
X15400000Y-8794864D01*
X15398031Y-8801568D01*
X15396368Y-8803632D01*
X15303632Y-8896368D01*
X15297500Y-8899717D01*
X15294864Y-8900000D01*
X11805136Y-8900000D01*
X11798432Y-8898032D01*
X11796368Y-8896368D01*
X11703632Y-8803632D01*
X11700283Y-8797500D01*
X11700000Y-8794864D01*
X11700000Y-7705136D01*
X11701968Y-7698432D01*
X11703632Y-7696368D01*
X11796368Y-7603632D01*
X11802500Y-7600283D01*
X11805136Y-7600000D01*
X15294864Y-7600000D01*
X15301568Y-7601968D01*
G37*
%TD.AperFunction*%
%TD*%
%TA.AperFunction,Conductor*%
%TO.N,Net-(C1-Pad2)*%
G36*
X15301568Y-12101968D02*
G01*
X15303632Y-12103632D01*
X15396368Y-12196368D01*
X15399717Y-12202500D01*
X15400000Y-12205136D01*
X15400000Y-13294864D01*
X15398031Y-13301568D01*
X15396368Y-13303632D01*
X15303632Y-13396368D01*
X15297500Y-13399717D01*
X15294864Y-13400000D01*
X11805136Y-13400000D01*
X11798432Y-13398031D01*
X11796368Y-13396368D01*
X11703632Y-13303632D01*
X11700283Y-13297500D01*
X11700000Y-13294864D01*
X11700000Y-12205136D01*
X11701968Y-12198432D01*
X11703632Y-12196368D01*
X11796368Y-12103632D01*
X11802500Y-12100283D01*
X11805136Y-12100000D01*
X15294864Y-12100000D01*
X15301568Y-12101968D01*
G37*
%TD.AperFunction*%
%TD*%
%TA.AperFunction,Conductor*%
%TO.N,/+Vinj*%
G36*
X15301568Y-10551969D02*
G01*
X15303632Y-10553632D01*
X15396368Y-10646368D01*
X15399717Y-10652500D01*
X15400000Y-10655136D01*
X15400000Y-11794864D01*
X15398031Y-11801568D01*
X15396368Y-11803632D01*
X15303632Y-11896368D01*
X15297500Y-11899717D01*
X15294864Y-11900000D01*
X11805136Y-11900000D01*
X11798432Y-11898031D01*
X11796368Y-11896368D01*
X11703632Y-11803632D01*
X11700283Y-11797500D01*
X11700000Y-11794864D01*
X11700000Y-10655136D01*
X11701968Y-10648432D01*
X11703632Y-10646368D01*
X11796368Y-10553632D01*
X11802500Y-10550283D01*
X11805136Y-10550000D01*
X15294864Y-10550000D01*
X15301568Y-10551969D01*
G37*
%TD.AperFunction*%
%TD*%
%TA.AperFunction,Conductor*%
%TO.N,/-Vinj*%
G36*
X15301568Y-9101969D02*
G01*
X15303632Y-9103632D01*
X15396368Y-9196368D01*
X15399717Y-9202500D01*
X15400000Y-9205136D01*
X15400000Y-10344864D01*
X15398031Y-10351568D01*
X15396368Y-10353632D01*
X15303632Y-10446368D01*
X15297500Y-10449717D01*
X15294864Y-10450000D01*
X11805136Y-10450000D01*
X11798432Y-10448032D01*
X11796368Y-10446368D01*
X11703632Y-10353632D01*
X11700283Y-10347500D01*
X11700000Y-10344864D01*
X11700000Y-9205136D01*
X11701968Y-9198432D01*
X11703632Y-9196368D01*
X11796368Y-9103632D01*
X11802500Y-9100283D01*
X11805136Y-9100000D01*
X15294864Y-9100000D01*
X15301568Y-9101969D01*
G37*
%TD.AperFunction*%
%TD*%
%TA.AperFunction,Conductor*%
%TO.N,/-Vinj*%
G36*
X15301568Y-6201968D02*
G01*
X15303632Y-6203632D01*
X15396368Y-6296368D01*
X15399717Y-6302500D01*
X15400000Y-6305136D01*
X15400000Y-7294864D01*
X15398031Y-7301568D01*
X15396368Y-7303632D01*
X15303632Y-7396368D01*
X15297500Y-7399717D01*
X15294864Y-7400000D01*
X11805136Y-7400000D01*
X11798432Y-7398031D01*
X11796368Y-7396368D01*
X11703632Y-7303632D01*
X11700283Y-7297500D01*
X11700000Y-7294864D01*
X11700000Y-6305136D01*
X11701968Y-6298432D01*
X11703632Y-6296368D01*
X11796368Y-6203632D01*
X11802500Y-6200283D01*
X11805136Y-6200000D01*
X15294864Y-6200000D01*
X15301568Y-6201968D01*
G37*
%TD.AperFunction*%
%TD*%
M02*
