M48
; DRILL file {KiCad 9.0.7} date 2026-03-31T09:01:16+0100
; FORMAT={-:-/ absolute / inch / decimal}
; #@! TF.CreationDate,2026-03-31T09:01:16+01:00
; #@! TF.GenerationSoftware,Kicad,Pcbnew,9.0.7
; #@! TF.FileFunction,MixedPlating,1,4
FMAT,2
INCH
; #@! TA.AperFunction,Plated,PTH,ComponentDrill
T1C0.0177
; #@! TA.AperFunction,Plated,PTH,ViaDrill
T2C0.0197
; #@! TA.AperFunction,Plated,PTH,ComponentDrill
T3C0.0394
; #@! TA.AperFunction,Plated,PTH,ComponentDrill
T4C0.0400
; #@! TA.AperFunction,Plated,PTH,ComponentDrill
T5C0.0591
; #@! TA.AperFunction,Plated,PTH,ComponentDrill
T6C0.0630
; #@! TA.AperFunction,Plated,PTH,ComponentDrill
T7C0.0866
; #@! TA.AperFunction,Plated,PTH,ComponentDrill
T8C0.1260
%
G90
G05
T1
X3.1732Y-2.4409
X3.1732Y-5.8268
X3.2009Y-2.3741
X3.2009Y-2.5078
X3.2009Y-5.76
X3.2009Y-5.8936
X3.2677Y-2.3465
X3.2677Y-2.5354
X3.2677Y-5.7323
X3.2677Y-5.9213
X3.3345Y-2.3741
X3.3345Y-2.5078
X3.3345Y-5.76
X3.3345Y-5.8936
X3.3622Y-2.4409
X3.3622Y-5.8268
X7.1102Y-2.4409
X7.1102Y-5.8268
X7.1379Y-2.3741
X7.1379Y-2.5078
X7.1379Y-5.76
X7.1379Y-5.8936
X7.2047Y-2.3465
X7.2047Y-2.5354
X7.2047Y-5.7323
X7.2047Y-5.9213
X7.2715Y-2.3741
X7.2715Y-2.5078
X7.2715Y-5.76
X7.2715Y-5.8936
X7.2992Y-2.4409
X7.2992Y-5.8268
T2
X3.0512Y-2.6575
X3.0512Y-2.8543
X3.0512Y-3.0512
X3.0512Y-3.248
X3.0512Y-3.4449
X3.0512Y-3.6417
X3.0512Y-3.8386
X3.0512Y-4.0354
X3.0512Y-4.2323
X3.0512Y-4.4291
X3.0512Y-4.626
X3.0512Y-4.8228
X3.0512Y-5.0197
X3.0512Y-5.2165
X3.0512Y-5.4134
X3.0512Y-5.6102
X3.4449Y-2.2638
X3.4449Y-6.0039
X3.6417Y-2.2638
X3.6417Y-6.0039
X3.8386Y-2.2638
X4.0354Y-2.2638
X4.2323Y-2.2638
X4.2323Y-6.0039
X4.4291Y-2.2638
X4.4291Y-6.0039
X4.626Y-2.2638
X4.626Y-6.0039
X4.7244Y-2.5591
X4.7244Y-2.6575
X4.7244Y-3.8386
X4.7244Y-3.937
X4.7244Y-4.3307
X4.7244Y-4.4291
X4.7244Y-5.6102
X4.7244Y-5.7087
X4.8228Y-2.2638
X4.8228Y-2.5591
X4.8228Y-2.6575
X4.8228Y-3.8386
X4.8228Y-3.937
X4.8228Y-4.3307
X4.8228Y-4.4291
X4.8228Y-5.6102
X4.8228Y-5.7087
X4.8228Y-6.0039
X4.9213Y-2.5591
X4.9213Y-2.6575
X4.9213Y-3.8386
X4.9213Y-3.937
X4.9213Y-4.3307
X4.9213Y-4.4291
X4.9213Y-5.6102
X4.9213Y-5.7087
X5.0197Y-2.2638
X5.0197Y-2.5591
X5.0197Y-2.6575
X5.0197Y-3.8386
X5.0197Y-3.937
X5.0197Y-4.3307
X5.0197Y-4.4291
X5.0197Y-5.6102
X5.0197Y-5.7087
X5.0197Y-6.0039
X5.1181Y-2.5591
X5.1181Y-2.6575
X5.1181Y-3.8386
X5.1181Y-3.937
X5.1181Y-4.3307
X5.1181Y-4.4291
X5.1181Y-5.6102
X5.1181Y-5.7087
X5.2165Y-2.2638
X5.2165Y-2.5591
X5.2165Y-2.6575
X5.2165Y-3.8386
X5.2165Y-3.937
X5.2165Y-4.3307
X5.2165Y-4.4291
X5.2165Y-5.6102
X5.2165Y-5.7087
X5.2165Y-6.0039
X5.315Y-2.5591
X5.315Y-2.6575
X5.315Y-3.8386
X5.315Y-3.937
X5.315Y-4.3307
X5.315Y-4.4291
X5.315Y-5.6102
X5.315Y-5.7087
X5.4134Y-2.2638
X5.4134Y-2.5591
X5.4134Y-2.6575
X5.4134Y-3.8386
X5.4134Y-3.937
X5.4134Y-4.3307
X5.4134Y-4.4291
X5.4134Y-5.6102
X5.4134Y-5.7087
X5.4134Y-6.0039
X5.5118Y-2.5591
X5.5118Y-2.6575
X5.5118Y-3.8386
X5.5118Y-3.937
X5.5118Y-4.3307
X5.5118Y-4.4291
X5.5118Y-5.6102
X5.5118Y-5.7087
X5.6102Y-2.2638
X5.6102Y-2.5591
X5.6102Y-2.6575
X5.6102Y-3.8386
X5.6102Y-3.937
X5.6102Y-4.3307
X5.6102Y-4.4291
X5.6102Y-5.6102
X5.6102Y-5.7087
X5.6102Y-6.0039
X5.7087Y-2.5591
X5.7087Y-2.6575
X5.7087Y-3.8386
X5.7087Y-3.937
X5.7087Y-4.3307
X5.7087Y-4.4291
X5.7087Y-5.6102
X5.7087Y-5.7087
X5.8071Y-2.2638
X5.8071Y-2.5591
X5.8071Y-2.6575
X5.8071Y-3.8386
X5.8071Y-3.937
X5.8071Y-4.3307
X5.8071Y-4.4291
X5.8071Y-5.6102
X5.8071Y-5.7087
X5.8071Y-6.0039
X5.9055Y-2.5591
X5.9055Y-2.6575
X5.9055Y-3.8386
X5.9055Y-3.937
X5.9055Y-4.3307
X5.9055Y-4.4291
X5.9055Y-5.6102
X5.9055Y-5.7087
X6.0039Y-2.2638
X6.0039Y-6.0039
X6.2008Y-2.2638
X6.2008Y-6.0039
X6.3976Y-2.2638
X6.3976Y-6.0039
X6.4961Y-2.5551
X6.4961Y-5.9449
X6.5945Y-2.2638
X6.5945Y-6.0039
X6.7913Y-2.2638
X6.7913Y-6.0039
X6.9882Y-2.2638
X6.9882Y-6.0039
X7.3819Y-2.6575
X7.3819Y-2.8543
X7.3819Y-3.0512
X7.3819Y-3.248
X7.3819Y-3.4449
X7.3819Y-3.6417
X7.3819Y-3.8386
X7.3819Y-4.0354
X7.3819Y-4.2323
X7.3819Y-4.4291
X7.3819Y-4.626
X7.3819Y-4.8228
X7.3819Y-5.0197
X7.3819Y-5.2165
X7.3819Y-5.4134
X7.3819Y-5.6102
T3
X3.9764Y-4.1339
X4.1732Y-3.0118
X4.1732Y-5.2559
X4.9213Y-2.8543
X4.9213Y-3.0512
X4.9213Y-3.4449
X4.9213Y-3.6417
X4.9213Y-4.626
X4.9213Y-4.8228
X4.9213Y-5.2165
X4.9213Y-5.4134
X5.748Y-2.8543
X5.748Y-3.0512
X5.748Y-3.4449
X5.748Y-3.6417
X5.748Y-4.626
X5.748Y-4.8228
X5.748Y-5.2165
X5.748Y-5.4134
X6.2205Y-2.437
X6.2205Y-5.8268
X6.5354Y-3.0118
X6.5354Y-4.1339
X6.5354Y-5.2559
T4
X3.9764Y-3.2661
X3.9764Y-3.3661
X3.9764Y-3.4661
X3.9764Y-4.8
X3.9764Y-4.9
X3.9764Y-5.0
X5.4724Y-4.0748
X5.4724Y-4.1748
X6.5197Y-3.2661
X6.5197Y-3.3661
X6.5197Y-3.4661
X6.5213Y-4.8016
X6.5213Y-4.9016
X6.5213Y-5.0016
T5
X3.3323Y-2.8118
X3.3323Y-3.2118
X3.3323Y-3.5598
X3.3323Y-3.9598
X3.3323Y-4.3079
X3.3323Y-4.7079
X3.3323Y-5.0559
X3.3323Y-5.4559
X3.7323Y-2.8118
X3.7323Y-3.2118
X3.7323Y-3.5598
X3.7323Y-3.9598
X3.7323Y-4.3079
X3.7323Y-4.7079
X3.7323Y-5.0559
X3.7323Y-5.4559
X6.7654Y-3.5598
X6.7654Y-3.9598
X6.7654Y-4.3079
X6.7654Y-4.7079
X6.7654Y-5.0539
X6.7654Y-5.4539
X6.7657Y-2.8118
X6.7657Y-3.2118
X7.1654Y-3.5598
X7.1654Y-3.9598
X7.1654Y-4.3079
X7.1654Y-4.7079
X7.1654Y-5.0539
X7.1654Y-5.4539
X7.1657Y-2.8118
X7.1657Y-3.2118
T6
X6.6717Y-2.3409
X6.6717Y-2.5409
X6.6717Y-5.7268
X6.6717Y-5.9268
X6.7717Y-2.4409
X6.7717Y-5.8268
X6.8717Y-2.3409
X6.8717Y-2.5409
X6.8717Y-5.7268
X6.8717Y-5.9268
T7
X3.5827Y-3.0118
X3.5827Y-3.7598
X3.5827Y-4.5079
X3.5827Y-5.2559
X6.915Y-3.7598
X6.915Y-4.5079
X6.915Y-5.2539
X6.9154Y-3.0118
T8
X3.2677Y-2.4409
X3.2677Y-5.8268
X7.2047Y-2.4409
X7.2047Y-5.8268
M30
